#!OML:ASF F:\VICON\USERDATA\INSTALL\rory3\rory3.ASF
:FULLY-SPECIFIED
:DEGREES
270
root 0.4643678801154342 17.756982494555146 62.59680415868054 -0.930520059595981 -1.9474346410723928 -2.8156019147379405
lfemur -10.01060202992647 -2.197887923701924 -18.017180482771728
ltibia 30.38718843510943
lfoot 4.2359853254559585 -2.811532835838524
ltoes -3.6133093646405765
rfemur -16.01939701285454 5.314790756431249 24.752514567275885
rtibia 39.51917213003152
rfoot -6.952053697711428 -10.382766289445932
rtoes 4.9922886064951255
lowerback 11.108677279754316 0.4846064381442923 2.250445043583535
upperback -0.07175741829833557 1.1317724612160691 1.945201742367546
thorax -5.91428010297452 0.5763381800658604 0.4149303361320178
lowerneck -16.349432966145756 -3.029938895706597 -3.3806902693748864
upperneck 22.109221104158607 -3.6819982081968083 1.4655739989495078
head 9.650902343626173 -1.807227808644842 0.6912875034718566
lclavicle -2.027025143337201e-15 -7.121156097902274e-16
lhumerus -32.38161978809694 1.3378019780603192 80.93580669645857
lradius 28.841997052303956
lwrist 7.344559745067623
lhand -30.65686059360847 18.46763656373028
lfingers 7.12502
lthumb -3.620566008388745 48.77982520851159
rclavicle -2.0282650001919108e-15 -7.128877334768477e-16
rhumerus -30.273810800188375 -21.563472589920636 -75.51497689651178
rradius 20.602560927489225
rwrist 5.860826092069312
rhand -17.633588567930424 21.230416979227844
rfingers 7.12502
rthumb 7.827411358572986 -7.390412547755312
271
root 0.462318814690571 17.753594130935202 62.44516742531731 -0.8918136254919795 -1.9696959940067953 -2.8579932542980044
lfemur -10.300013373583303 -2.0546007830410224 -17.935551664096117
ltibia 30.848138714657683
lfoot 3.8803860058142767 -2.4178394090963025
ltoes -3.8128899878920945
rfemur -16.18591475336113 5.331080833508515 24.76118004767661
rtibia 39.35238374292749
rfoot -6.790197197294513 -10.428445894213892
rtoes 4.676901550383462
lowerback 11.052498552835985 0.4941482438644855 2.2890977041441394
upperback -0.08118278994047798 1.1524175953279372 1.950443315253476
thorax -5.904826830588631 0.5819244549473097 0.36394616110296907
lowerneck -16.36192515227055 -3.0390220827634895 -3.375477935752632
upperneck 22.127235688605037 -3.6922846977316954 1.4667944758894575
head 9.66017872311054 -1.8114832943414763 0.6867112326171443
lclavicle -2.027100123506788e-15 -7.121624089686088e-16
lhumerus -32.07423283072303 1.2326506169331948 81.05179448266756
lradius 28.71554888704392
lwrist 7.099187002535904
lhand -30.471681889646863 18.5508928928534
lfingers 7.12502
lthumb -3.431307777581625 48.90995848859026
rclavicle -2.028370444265015e-15 -7.12955033024306e-16
rhumerus -30.274630491729763 -21.67509499731352 -75.34339370814821
rradius 20.48844676918938
rwrist 6.11919420943011
rhand -17.64234096710959 21.253515274655385
rfingers 7.12502
rthumb 7.812682058572987 -7.4174147831309325
272
root 0.459094953204319 17.743664456271166 62.31339932126741 -0.8085708110661762 -1.9553609057794086 -2.7515387290779585
lfemur -10.737519744748727 -1.9903108752578658 -18.015334421041953
ltibia 31.398169793581502
lfoot 3.4766046751602993 -2.162923974084062
ltoes -4.060469402263356
rfemur -16.298114158908618 5.278248256028737 24.639417883940407
rtibia 39.18124686060754
rfoot -6.607195308165295 -10.372478359754666
rtoes 4.58857604340187
lowerback 10.997184521662238 0.5001005870151726 2.2289259604557063
upperback -0.11763903820758535 1.1425301626461675 1.918745716675312
thorax -5.912812510181178 0.5718324650145283 0.32734087753702656
lowerneck -16.354404738767432 -3.0570266841684273 -3.381593586174877
upperneck 22.12202696086416 -3.7275371387143634 1.522875848625324
head 9.663436462895941 -1.8213192218834564 0.6968874072294653
lclavicle -2.0263571958199446e-15 -7.116889341494603e-16
lhumerus -31.777129788377895 1.2438192302680386 81.09361986722418
lradius 28.563781782903348
lwrist 6.639944297792264
lhand -30.19817392146476 18.895333093733722
lfingers 7.12502
lthumb -3.183219235497395 49.15528359061353
rclavicle -2.0278646401211147e-15 -7.126320746432989e-16
rhumerus -30.42524203968057 -21.78354721868436 -75.23854785317552
rradius 20.458396705679718
rwrist 6.088067044138487
rhand -17.625140471019726 21.233572225491265
rfingers 7.12502
rthumb 7.810001561209441 -7.5949344911218155
273
root 0.4512223817408106 17.715871939593196 62.216586674937886 -0.8180081994907717 -1.9468146669728652 -2.8964612543859225
lfemur -11.251844172709344 -1.9317493754333093 -17.870093889406775
ltibia 31.901134857236535
lfoot 2.7870589428933457 -1.7918597495712298
ltoes -5.009884045321934
rfemur -16.43997402121817 5.191671858745756 24.772466834673175
rtibia 39.25569144637712
rfoot -6.494297570717802 -10.362387022461474
rtoes 4.4435168801645775
lowerback 11.054353851210324 0.48620838584589177 2.372818866027136
upperback -0.12151611736054213 1.1572610540004344 1.9322395268383332
thorax -5.967825448192363 0.5660367411081801 0.24466416462291418
lowerneck -16.347983368948668 -3.0720700711518 -3.3874763541061808
upperneck 22.098635061121534 -3.7568388562510853 1.570050342315147
head 9.663857131375721 -1.8287677092147163 0.7054431320259704
lclavicle -2.0261152606219016e-15 -7.115337810164298e-16
lhumerus -31.50410951423677 1.165050125610855 81.14931214189187
lradius 28.570262610108642
lwrist 6.407004196990861
lhand -30.06926515259709 18.84054980679392
lfingers 7.12502
lthumb -3.0282354350602785 49.13961151898546
rclavicle -2.028138923900093e-15 -7.128072587641909e-16
rhumerus -30.52532004053138 -21.807329450984742 -75.17087290975964
rradius 20.44953453483498
rwrist 6.195099867840595
rhand -17.653010048450213 21.217104991264506
rfingers 7.12502
rthumb 7.783364753444117 -7.632652198059026
274
root 0.4506639643232397 17.712415109625073 62.11627045480686 -0.8107473763979092 -1.9508573826407396 -2.8515619052592323
lfemur -11.73732230273017 -1.9033966534089903 -17.977017115146893
ltibia 32.12480899367994
lfoot 2.4530184961797854 -1.2925153517692438
ltoes -4.861221350214604
rfemur -16.465140094651865 5.099142852899838 24.786132460598264
rtibia 39.172962245199116
rfoot -6.236211048434262 -10.340357661957288
rtoes 4.181898642214037
lowerback 11.064431036248275 0.4894542903878316 2.3885444449437783
upperback -0.137616495691909 1.1483285267980925 1.921885409331513
thorax -6.000593214866762 0.5632005637807624 0.1733462473135654
lowerneck -16.317987332168684 -3.0813965937504624 -3.398093172332782
upperneck 22.041747666290966 -3.774320280275705 1.6157587131559537
head 9.643200047337794 -1.831920063196644 0.7169283970312503
lclavicle -2.0259632587513772e-15 -7.11435933853746e-16
lhumerus -31.3401876342484 1.035011956242271 81.22124034469768
lradius 28.65542352703053
lwrist 6.077606142345485
lhand -29.968961785122623 19.063144121103527
lfingers 7.12502
lthumb -2.922604276999867 49.329455053643564
rclavicle -2.027751733320839e-15 -7.125600263675396e-16
rhumerus -30.65076084533802 -21.843199667985484 -75.1502659683498
rradius 20.488321062724047
rwrist 6.170727152338699
rhand -17.648044305627668 21.260924597452778
rfingers 7.12502
rthumb 7.818651636615792 -7.533500606172694
275
root 0.445811817353067 17.675085016950554 61.97869116400524 -0.8993316460810654 -2.154222442773639 -3.0321390802283306
lfemur -12.272284399199851 -1.6838772101392498 -17.852228850728082
ltibia 32.559446666103916
lfoot 1.4307211317180748 -0.9067121916388978
ltoes -5.78581891984451
rfemur -16.34347954869644 5.010282805666213 25.132714623687612
rtibia 39.19970571519223
rfoot -6.202482087513995 -10.332266409818004
rtoes 4.690949981151594
lowerback 11.188670308710458 0.5529198883390402 2.5256844491364987
upperback -0.1354673604161405 1.2930947182722292 1.940073841923802
thorax -6.1006141584665565 0.6229113755924995 0.05847508581249827
lowerneck -16.281056758308257 -3.0986560549961766 -3.4292167458824574
upperneck 22.00113526368217 -3.805115863583418 1.6563038124901075
head 9.634764990225069 -1.8404851540392626 0.7278984950348713
lclavicle -2.025252981028217e-15 -7.109836878177072e-16
lhumerus -31.184750461434778 0.984075991335291 81.27690964256499
lradius 28.738301557279815
lwrist 6.011000091999254
lhand -29.84975993377642 19.028520600867676
lfingers 7.12502
lthumb -2.7804637293446866 49.32167659367681
rclavicle -2.027439333481335e-15 -7.123605514763967e-16
rhumerus -30.752606055180447 -21.893882356434965 -75.12183639041206
rradius 20.49615319401487
rwrist 6.301394971770529
rhand -17.69536101187891 21.228083868055677
rfingers 7.12502
rthumb 7.814970438664368 -7.628525230393354
276
root 0.4430616747813856 17.65375404494678 61.90867769781085 -0.924147703925281 -2.2422223576227656 -3.076069607168203
lfemur -12.839487744231207 -1.6285263659225273 -17.846566172464886
ltibia 32.32375092016278
lfoot 0.6073791306917258 -0.18042027990503628
ltoes -6.036831036984932
rfemur -16.131193856112716 4.868112948018849 25.413985610852265
rtibia 39.192428126286174
rfoot -6.162663391698641 -10.336335932897184
rtoes 4.655241908684321
lowerback 11.228252479901553 0.5675832245515189 2.554079032232874
upperback -0.12366323587431437 1.313372478001692 1.9388400129271428
thorax -6.137907414236406 0.6319837609962471 -0.014944632548646197
lowerneck -16.276499085716818 -3.115665414835145 -3.4403274725455244
upperneck 21.950265962654623 -3.8371647116839074 1.7278890150110935
head 9.618835801479113 -1.847517493704842 0.7446924224141114
lclavicle -2.0249145762834005e-15 -7.107665852732103e-16
lhumerus -31.11449944962218 0.9357832635363921 81.27191972719942
lradius 28.9516168949785
lwrist 6.319674487465183
lhand -29.95175519618943 18.94568419022874
lfingers 7.12502
lthumb -2.9115773372766807 49.23526668773596
rclavicle -2.0269813608554997e-15 -7.120681179416399e-16
rhumerus -30.741198100413918 -21.818551178056744 -75.16854012957094
rradius 20.55017978992617
rwrist 6.361851462198895
rhand -17.689626491407186 21.29204784279603
rfingers 7.12502
rthumb 7.84599359542505 -7.573803934158469
277
root 0.4461561533432315 17.642186838876675 61.8007911622358 -0.9739722717359556 -2.323689707536988 -3.1044091065604533
lfemur -13.24549481485544 -1.5665339384043222 -17.827557563005737
ltibia 31.847218071995943
lfoot -0.3051335771102659 0.2746521394843957
ltoes -6.644294586642907
rfemur -15.823565538173543 4.6859054607702815 25.65729098285788
rtibia 39.103721283339866
rfoot -6.094952100109307 -10.356393769383168
rtoes 4.479626574948938
lowerback 11.298393552818613 0.5810583648574656 2.5858749730509447
upperback -0.1512567257365105 1.3426723387605135 1.9449176293442518
thorax -6.194963554213818 0.6460856071373036 -0.09954267281318407
lowerneck -16.25825854700249 -3.125557305158097 -3.429113902848893
upperneck 21.94007258756794 -3.859189353672365 1.7531059396701543
head 9.627133122902329 -1.8524294252680642 0.7448811258507081
lclavicle -2.0245133449392013e-15 -7.10510559917335e-16
lhumerus -31.107474818090296 0.896719322908579 81.22949748068575
lradius 29.035271159312376
lwrist 6.373133661271309
lhand -29.961439641455154 19.000436921406717
lfingers 7.12502
lthumb -2.9469894331969435 49.24266102364024
rclavicle -2.0271919975648595e-15 -7.122026499194471e-16
rhumerus -30.67502263250825 -21.739941243696318 -75.26196319460921
rradius 20.64013654975154
rwrist 6.295836388412018
rhand -17.72660135690147 21.26413778674524
rfingers 7.12502
rthumb 7.855300856085821 -7.629750443658943
